<svg xmlns="http://www.w3.org/2000/svg" version="1.1" x="0px" y="0px" viewBox="0 0 100 50" xml:space="preserve" enable-background="new 0 0 100 50"><style type="text/css">
	.st0{display:none;}
	.st1{fill:#E14137;}
	.st2{display:inline;}
	.st3{fill:#B8BEC5;}
	.st4{fill:#2B5A96;}
	.st5{fill:#345789;}
	.st6{display:none;fill:#B8BEC5;}
	.st7{fill:#345F94;}
</style><g class="st0"><image width="230" height="230" transform="matrix(0.4348 0 0 0.4348 0 -26)" style="display:inline;overflow:visible"/><image width="230" height="230" transform="matrix(0.4348 0 0 0.4348 0 -25)" style="display:inline;overflow:visible"/><image width="230" height="230" transform="matrix(0.4348 0 0 0.4348 0 -26)" style="display:inline;overflow:visible"/><image width="230" height="230" transform="matrix(0.4348 0 0 0.4348 0 -25)" style="display:inline;overflow:visible"/><image width="230" height="230" transform="matrix(0.4348 0 0 0.4348 0 -26)" style="display:inline;overflow:visible"/><image width="230" height="230" transform="matrix(0.4348 0 0 0.4348 0 -26)" style="display:inline;overflow:visible"/></g><path class="st1" d="M4.42 42.52H0.17v-9.49h4.22v1.22H2.34v2.57h1.85v1.15H2.34v3.33h2.08V42.52z"/><path class="st1" d="M9.84 42.52H5.77v-9.49h2.17v8.27h1.9V42.52z"/><path class="st1" d="M15.4 42.52h-4.25v-9.49h4.22v1.22h-2.05v2.57h1.85v1.15h-1.85v3.33h2.08V42.52z"/><path class="st1" d="M21.49 36.35h-1.97v-1.88c0-0.15-0.1-0.23-0.3-0.23 -0.21 0-0.31 0.08-0.31 0.23v6.58c0 0.15 0.1 0.23 0.31 0.23 0.2 0 0.3-0.08 0.3-0.23v-2.34h1.97v2.41c0 0.45-0.23 0.81-0.69 1.08 -0.46 0.27-0.98 0.41-1.56 0.41 -1.67 0-2.51-0.57-2.51-1.71v-6.11c0-1.23 0.84-1.85 2.51-1.85 1.5 0 2.25 0.56 2.25 1.68V36.35z"/><path class="st1" d="M27.47 34.27h-1.21v8.25h-2.17v-8.25h-1.21v-1.24h4.6V34.27z"/><path class="st1" d="M34.22 42.53h-2.17c-0.23-0.27-0.35-1.03-0.35-2.29v-0.01l0.01-0.57c0.01-0.79 0.02-1.19 0.02-1.21 0-0.32-0.23-0.48-0.68-0.48v4.55h-2.17v-9.49h2.68c0.61 0 1.14 0.13 1.6 0.4 0.45 0.27 0.68 0.7 0.68 1.28v1.14c0 0.74-0.45 1.24-1.34 1.5 0.9 0.2 1.35 0.73 1.35 1.57l-0.03 1.04C33.81 41.47 33.95 42.33 34.22 42.53zM31.72 36.31v-1.57c0-0.33-0.22-0.5-0.67-0.5v2.57C31.5 36.82 31.72 36.65 31.72 36.31z"/><path class="st1" d="M37.63 42.52h-2.17v-9.49h2.17V42.52z"/><path class="st1" d="M43.79 36.35h-1.97v-1.88c0-0.15-0.1-0.23-0.3-0.23 -0.21 0-0.31 0.08-0.31 0.23v6.58c0 0.15 0.1 0.23 0.31 0.23 0.2 0 0.3-0.08 0.3-0.23v-2.34h1.97v2.41c0 0.45-0.23 0.81-0.69 1.08 -0.46 0.27-0.98 0.41-1.56 0.41 -1.67 0-2.51-0.57-2.51-1.71v-6.11c0-1.23 0.84-1.85 2.51-1.85 1.5 0 2.25 0.56 2.25 1.68V36.35z"/><path class="st1" d="M64.95 42.36h-2.17v-4.55h-0.61v4.55H60v-9.49h2.17v3.79h0.61v-3.79h2.17V42.36z"/><path class="st1" d="M70.62 42.36h-4.25v-9.49h4.22v1.22h-2.05v2.57h1.85v1.15h-1.85v3.33h2.08V42.36z"/><path class="st1" d="M77.82 42.36h-2.15l-0.37-2.55h-0.96l-0.37 2.55h-2.15l1.62-9.49h2.75L77.82 42.36zM75.13 38.49l-0.31-2.83 -0.3 2.83H75.13z"/><path class="st1" d="M83.67 34.11h-1.21v8.25h-2.17v-8.25h-1.21v-1.24h4.6V34.11z"/><path class="st1" d="M87.2 42.36h-2.17v-9.49h2.17V42.36z"/><path class="st1" d="M94.13 42.36h-2.23l-1.47-5.06v5.06h-1.81v-9.49h2.47l1.24 4.33v-4.33h1.81V42.36z"/><path class="st1" d="M100.34 42.36H99.3l-0.28-0.52c-0.48 0.41-0.98 0.61-1.52 0.61 -0.52 0-0.97-0.13-1.36-0.39 -0.39-0.26-0.58-0.67-0.58-1.23v-6.19c0-1.23 0.82-1.85 2.45-1.85 1.55 0 2.33 0.56 2.33 1.68v1.76h-1.97V34.3c0-0.15-0.11-0.23-0.32-0.23s-0.32 0.08-0.32 0.23v6.58c0 0.15 0.11 0.23 0.32 0.23s0.32-0.08 0.32-0.23v-1.77h-0.44v-1.46h2.41V42.36z"/><g class="st0"><g class="st2"><path class="st3" d="M82.21 7.21c0.11 0 0.21 0 0.3 0 0.09 0 0.19 0.01 0.3 0.03 -0.26 0.41-0.59 0.78-0.97 1.13 -0.38 0.35-0.67 0.74-0.87 1.19 0.15 0.68 0.34 1.35 0.58 2.03 0.23 0.68 0.34 1.37 0.34 2.09 0 0.15-0.01 0.36-0.03 0.61 -0.02 0.25-0.07 0.46-0.13 0.61 -0.13 0.29-0.31 0.6-0.53 0.93 -0.22 0.33-0.47 0.64-0.76 0.93 -0.28 0.29-0.6 0.54-0.95 0.75 -0.35 0.21-0.7 0.35-1.05 0.41 -0.83 0.16-1.7 0.21-2.61 0.17 -0.91-0.04-1.79-0.03-2.65 0.03 0.04-0.12 0.1-0.29 0.18-0.52 0.08-0.23 0.17-0.47 0.28-0.71 0.11-0.24 0.22-0.45 0.34-0.64s0.25-0.29 0.38-0.33c0.11-0.02 0.3-0.04 0.58-0.06s0.58-0.03 0.9-0.04c0.33-0.01 0.66-0.02 0.99-0.03 0.33-0.01 0.6-0.03 0.82-0.07 0.39-0.06 0.67-0.18 0.82-0.36s0.32-0.41 0.49-0.68c0.13-0.21 0.23-0.41 0.3-0.58s0.1-0.39 0.1-0.64c0-0.31-0.04-0.61-0.12-0.9 -0.08-0.29-0.16-0.59-0.25-0.9 -0.33 0.23-0.63 0.49-0.9 0.77 -0.27 0.28-0.54 0.57-0.8 0.86 -0.42-0.06-0.82-0.14-1.22-0.25 -0.39-0.11-0.78-0.23-1.15-0.36 0.55-0.58 1.08-1.15 1.61-1.7 0.53-0.55 1.04-1.14 1.54-1.75 0.09-0.12 0.21-0.27 0.36-0.45 0.15-0.18 0.32-0.36 0.49-0.54 0.18-0.17 0.35-0.33 0.53-0.48 0.17-0.15 0.33-0.24 0.46-0.28 0.31-0.1 0.69-0.16 1.15-0.2S81.91 7.21 82.21 7.21z"/></g></g><g class="st0"><g class="st2"><path class="st3" d="M35.6 4.45c0.89-0.11 1.64 0.01 2.25 0.37 0.61 0.35 0.96 0.93 1.06 1.74 0.07 0.58-0.01 1.27-0.25 2.09 -0.24 0.82-0.56 1.65-0.95 2.49 -0.39 0.84-0.83 1.63-1.31 2.37 -0.48 0.74-0.94 1.33-1.37 1.78 -0.51 0.16-1.03 0.31-1.55 0.45 -0.52 0.14-1.06 0.25-1.6 0.31 -0.11 0.01-0.23 0.03-0.36 0.04s-0.25 0.01-0.37-0.01c0.58-0.83 1.16-1.66 1.73-2.49 0.57-0.83 1.12-1.69 1.65-2.57 0.33-0.55 0.58-1.1 0.74-1.67 0.16-0.56 0.31-1.15 0.43-1.75 -0.13-0.02-0.28-0.04-0.42-0.06 -0.15-0.02-0.28-0.02-0.42-0.01 -0.11 0.01-0.23 0.05-0.35 0.1 -1 0.46-1.86 1.09-2.56 1.91 -0.71 0.82-1.31 1.71-1.8 2.69 -0.5 0.98-0.9 1.98-1.22 3 -0.32 1.02-0.6 1.98-0.84 2.87 -0.21 0.82-0.48 1.62-0.81 2.39 -0.34 0.77-0.63 1.56-0.88 2.37 1.17-0.18 2.34-0.37 3.51-0.55 1.17-0.18 2.35-0.34 3.55-0.47 0.67-0.08 1.37-0.17 2.1-0.27 0.73-0.1 1.42-0.08 2.08 0.05 -0.27 0.5-0.56 0.98-0.88 1.45 -0.32 0.47-0.61 0.95-0.88 1.45 -0.94 0.08-1.88 0.16-2.82 0.26 -0.94 0.1-1.87 0.2-2.81 0.32 -1.89 0.23-3.76 0.49-5.6 0.78 -1.04 1.22-2.26 2.3-3.64 3.23 -1.39 0.93-2.93 1.59-4.62 1.97 0.01-0.45 0.11-0.94 0.3-1.48 0.19-0.54 0.38-1.02 0.57-1.43 0.26-0.58 0.56-1.05 0.9-1.4 0.34-0.35 0.72-0.66 1.15-0.92 0.42-0.26 0.88-0.49 1.37-0.71 0.49-0.22 1.01-0.47 1.55-0.75 0.25-0.13 0.4-0.25 0.47-0.38 0.06-0.13 0.13-0.3 0.22-0.52 0.33-0.72 0.64-1.44 0.94-2.15 0.3-0.71 0.57-1.44 0.81-2.19 0.43-1.34 0.85-2.69 1.25-4.06 0.41-1.36 0.95-2.68 1.63-3.96 0.36-0.67 0.78-1.33 1.28-1.98 0.49-0.65 1.04-1.27 1.64-1.84 0.6-0.57 1.26-1.09 1.98-1.55 0.72-0.46 1.48-0.82 2.28-1.1 0.15-0.06 0.29-0.1 0.43-0.14C35.27 4.51 35.42 4.48 35.6 4.45z"/><path class="st3" d="M47.45 13.54c-0.15 0.41-0.31 0.82-0.49 1.23 -0.18 0.41-0.36 0.82-0.53 1.23 -0.99 0.18-1.93 0.43-2.82 0.74 -0.89 0.31-1.71 0.78-2.48 1.4 -0.58 0.48-1.09 1.01-1.53 1.59 -0.44 0.58-0.68 1.23-0.72 1.96 0.17-0.02 0.35-0.04 0.54-0.05 0.19-0.01 0.38-0.03 0.57-0.06 0.7-0.09 1.19-0.27 1.47-0.56 0.28-0.29 0.49-0.62 0.61-1 0.12-0.38 0.22-0.78 0.3-1.22 0.08-0.44 0.26-0.85 0.54-1.24 0.45-0.1 0.91-0.18 1.36-0.26 0.45-0.08 0.91-0.17 1.36-0.28 -0.05 0.3-0.13 0.6-0.24 0.91 -0.11 0.3-0.21 0.61-0.3 0.91 -0.09 0.3-0.17 0.61-0.22 0.93 -0.05 0.32-0.05 0.63-0.02 0.94l0.03 0.26c0.44 0 0.88-0.02 1.32-0.06 0.44-0.04 0.87-0.09 1.31-0.15 -0.08 0.4-0.2 0.79-0.34 1.17 -0.14 0.38-0.29 0.76-0.44 1.15l-1.17 0.15c-0.37 0.05-0.79 0.07-1.27 0.08 -0.47 0.01-0.89-0.04-1.26-0.15 -0.12-0.04-0.21-0.08-0.28-0.11 -0.07-0.03-0.18-0.04-0.33-0.02 -0.22 0.03-0.42 0.1-0.62 0.21 -0.2 0.11-0.39 0.2-0.58 0.26 -0.3 0.11-0.61 0.21-0.94 0.28 -0.33 0.07-0.66 0.12-0.99 0.16 -0.22 0.03-0.46 0.05-0.72 0.07 -0.26 0.02-0.5 0.03-0.73 0.02 -0.27-0.03-0.5-0.11-0.69-0.26 -0.2-0.15-0.36-0.34-0.48-0.55 -0.13-0.22-0.22-0.44-0.28-0.68 -0.06-0.24-0.11-0.45-0.13-0.64 -0.05-0.42 0.01-0.88 0.19-1.38 0.18-0.5 0.42-1 0.73-1.49 0.3-0.49 0.64-0.96 1-1.4 0.37-0.43 0.71-0.81 1.02-1.12 0.49-0.47 1.07-0.88 1.74-1.22 0.66-0.34 1.36-0.63 2.1-0.86 0.73-0.23 1.48-0.41 2.23-0.55C46.03 13.74 46.75 13.63 47.45 13.54z"/><path class="st3" d="M48.48 12.27l2.09-0.26c-0.02 0.33-0.09 0.64-0.2 0.93 -0.11 0.29-0.2 0.59-0.27 0.91 1-0.12 2-0.26 3.01-0.4s2.01-0.31 3-0.49c-0.07 0.34-0.14 0.67-0.21 0.99 -0.07 0.32-0.19 0.64-0.35 0.95 -0.35 0.24-0.7 0.45-1.06 0.64 -0.36 0.19-0.66 0.45-0.88 0.77 -0.36 0.49-0.71 1.02-1.05 1.58 -0.34 0.56-0.48 1.15-0.43 1.76 -0.04 0.2 0.1 0.32 0.42 0.36 0.33 0.04 0.71 0.04 1.15 0.02 0.44-0.02 0.87-0.07 1.31-0.13 0.43-0.06 0.72-0.1 0.85-0.12 -0.08 0.4-0.21 0.79-0.38 1.17s-0.35 0.77-0.52 1.16c-0.4 0.01-0.79 0.05-1.19 0.13 -0.4 0.08-0.81 0.14-1.22 0.19 -1.13 0.14-1.95 0.05-2.45-0.28 -0.5-0.33-0.82-1-0.94-2.02 -0.03-0.27 0.04-0.62 0.22-1.05 0.18-0.43 0.4-0.87 0.67-1.31 0.27-0.44 0.54-0.87 0.82-1.28 0.28-0.42 0.51-0.74 0.68-0.98 -0.18 0.02-0.35 0.04-0.52 0.05 -0.18 0.01-0.35 0.03-0.52 0.05 -0.35 0.04-0.61 0.1-0.79 0.19 -0.18 0.08-0.31 0.19-0.41 0.33 -0.09 0.14-0.17 0.3-0.22 0.48 -0.05 0.18-0.13 0.4-0.23 0.64 -0.37 0.03-0.74 0.06-1.11 0.11 -0.37 0.05-0.74 0.09-1.11 0.14 0.04-0.18 0.15-0.54 0.31-1.08 0.17-0.54 0.34-1.1 0.54-1.69 0.19-0.59 0.38-1.13 0.58-1.62C48.24 12.63 48.38 12.34 48.48 12.27z"/><path class="st3" d="M57.22 11.19l2.09-0.26c-0.03 0.34-0.09 0.64-0.2 0.93 -0.11 0.29-0.2 0.59-0.27 0.91 1-0.12 2.01-0.26 3.01-0.4 1.01-0.14 2.01-0.31 3-0.49 -0.07 0.34-0.14 0.67-0.21 0.99 -0.07 0.32-0.19 0.64-0.35 0.95 -0.35 0.24-0.7 0.45-1.06 0.64 -0.36 0.19-0.66 0.45-0.88 0.77 -0.36 0.49-0.71 1.02-1.05 1.58 -0.34 0.56-0.48 1.15-0.43 1.76 -0.04 0.2 0.1 0.32 0.42 0.36 0.32 0.04 0.71 0.04 1.15 0.02 0.44-0.02 0.87-0.07 1.31-0.13 0.43-0.06 0.72-0.1 0.85-0.12 -0.08 0.4-0.21 0.79-0.38 1.17 -0.17 0.38-0.35 0.77-0.52 1.16 -0.4 0.01-0.79 0.05-1.19 0.13 -0.4 0.08-0.8 0.14-1.22 0.19 -1.13 0.14-1.95 0.05-2.45-0.28 -0.5-0.33-0.82-1-0.94-2.02 -0.03-0.27 0.04-0.62 0.22-1.05s0.4-0.87 0.67-1.31c0.26-0.44 0.54-0.87 0.82-1.29 0.28-0.42 0.5-0.74 0.67-0.98 -0.17 0.02-0.35 0.04-0.52 0.05 -0.18 0.01-0.35 0.03-0.52 0.05 -0.35 0.04-0.61 0.1-0.79 0.19 -0.18 0.08-0.31 0.19-0.41 0.33 -0.09 0.14-0.17 0.3-0.22 0.48 -0.05 0.18-0.13 0.4-0.24 0.64 -0.37 0.03-0.74 0.06-1.11 0.11 -0.37 0.05-0.74 0.09-1.11 0.14 0.04-0.18 0.15-0.54 0.31-1.08 0.17-0.54 0.34-1.1 0.54-1.69 0.19-0.59 0.38-1.13 0.58-1.62C56.98 11.55 57.12 11.26 57.22 11.19z"/><path class="st3" d="M66.46 12.51c0.52-0.3 1.04-0.58 1.57-0.85 0.53-0.27 1.1-0.47 1.7-0.6 -0.38 1.22-0.79 2.42-1.23 3.61 -0.44 1.19-0.76 2.42-0.96 3.67 0.55-0.18 1.04-0.49 1.46-0.91 0.42-0.42 0.83-0.81 1.23-1.17 0.34-0.29 0.59-0.68 0.75-1.15s0.3-0.93 0.42-1.4c0.12-0.46 0.25-0.89 0.4-1.29 0.15-0.4 0.4-0.69 0.75-0.87 0.54-0.28 1.1-0.51 1.69-0.69 0.58-0.18 1.16-0.36 1.74-0.55 -0.16 0.53-0.35 1.02-0.59 1.49 -0.24 0.47-0.49 0.93-0.74 1.38 -0.25 0.45-0.5 0.89-0.73 1.32 -0.23 0.43-0.42 0.86-0.57 1.28 -0.14 0.45-0.25 0.91-0.33 1.4 -0.07 0.49-0.17 0.96-0.29 1.42 -0.11 0.56-0.24 1.11-0.39 1.65 -0.15 0.55-0.28 1.1-0.39 1.66 -0.18 0.88-0.42 1.69-0.71 2.44s-0.67 1.52-1.12 2.31c-0.36 0.63-0.83 1.17-1.39 1.62 -0.56 0.45-1.17 0.86-1.83 1.24 -0.47 0.27-0.96 0.48-1.46 0.63 -0.5 0.15-1.03 0.26-1.6 0.33 0.07-0.18 0.16-0.4 0.27-0.65 0.11-0.25 0.23-0.51 0.35-0.77 0.12-0.27 0.25-0.52 0.39-0.76 0.14-0.24 0.26-0.43 0.38-0.56 0.18-0.18 0.37-0.34 0.57-0.48 0.2-0.14 0.42-0.28 0.65-0.4 0.23-0.13 0.44-0.26 0.64-0.42 0.2-0.15 0.39-0.33 0.56-0.52 0.4-0.5 0.73-1.02 0.98-1.57 0.25-0.55 0.46-1.1 0.62-1.67 0.16-0.57 0.3-1.14 0.42-1.73 0.11-0.59 0.24-1.17 0.36-1.75 -0.23 0.13-0.47 0.28-0.74 0.46 -0.27 0.18-0.54 0.36-0.83 0.53 -0.29 0.17-0.57 0.32-0.85 0.46 -0.28 0.13-0.55 0.21-0.81 0.25 -0.13 0.02-0.29 0-0.47-0.04 -0.18-0.05-0.37-0.11-0.55-0.18 -0.19-0.07-0.35-0.17-0.5-0.27 -0.15-0.11-0.25-0.22-0.31-0.33 -0.05-0.09-0.1-0.23-0.13-0.42 -0.03-0.19-0.06-0.33-0.07-0.43 -0.05-0.38-0.03-0.89 0.06-1.51 0.09-0.62 0.21-1.26 0.38-1.92 0.16-0.65 0.36-1.28 0.58-1.87C66.01 13.31 66.24 12.85 66.46 12.51z"/></g></g><path class="st4" d="M82.26 6.34c0.11 0 0.2 0 0.29 0s0.18 0.01 0.29 0.03c-0.25 0.39-0.57 0.76-0.94 1.09s-0.65 0.72-0.84 1.15c0.15 0.65 0.33 1.31 0.55 1.96 0.22 0.65 0.33 1.33 0.33 2.02 0 0.15-0.01 0.35-0.03 0.59 -0.02 0.24-0.06 0.44-0.13 0.59 -0.13 0.28-0.3 0.58-0.51 0.9 -0.21 0.32-0.46 0.62-0.73 0.9 -0.28 0.28-0.58 0.52-0.92 0.73 -0.34 0.21-0.68 0.34-1.02 0.39 -0.8 0.15-1.65 0.21-2.52 0.17 -0.88-0.04-1.73-0.03-2.55 0.03 0.04-0.11 0.1-0.28 0.18-0.5s0.16-0.45 0.27-0.69c0.11-0.23 0.22-0.44 0.33-0.62s0.24-0.29 0.36-0.32c0.11-0.02 0.29-0.04 0.56-0.06s0.56-0.03 0.87-0.04c0.32-0.01 0.63-0.02 0.95-0.03 0.32-0.01 0.58-0.03 0.79-0.07 0.38-0.06 0.64-0.17 0.79-0.35s0.31-0.4 0.48-0.66c0.13-0.21 0.22-0.39 0.29-0.56s0.1-0.37 0.1-0.62c0-0.3-0.04-0.59-0.11-0.87s-0.15-0.57-0.24-0.87c-0.32 0.22-0.61 0.47-0.87 0.74 -0.26 0.27-0.52 0.55-0.78 0.83 -0.4-0.06-0.79-0.14-1.17-0.24s-0.75-0.22-1.11-0.35c0.53-0.56 1.05-1.11 1.55-1.64 0.51-0.53 1-1.1 1.49-1.69 0.08-0.11 0.2-0.26 0.35-0.43 0.15-0.18 0.31-0.35 0.48-0.52S79.42 7 79.59 6.86c0.17-0.14 0.32-0.23 0.44-0.27 0.3-0.09 0.67-0.16 1.11-0.2C81.59 6.36 81.96 6.34 82.26 6.34z"/><path class="st4" d="M35.23 3.99C36.09 3.89 36.82 4 37.4 4.34c0.59 0.34 0.93 0.9 1.02 1.68 0.07 0.56-0.01 1.23-0.25 2.02 -0.23 0.79-0.54 1.59-0.92 2.4 -0.38 0.81-0.8 1.57-1.27 2.29 -0.47 0.72-0.91 1.29-1.32 1.71 -0.49 0.16-0.99 0.3-1.5 0.44 -0.51 0.14-1.02 0.24-1.55 0.3 -0.1 0.01-0.22 0.03-0.35 0.04s-0.24 0.01-0.35-0.01c0.56-0.8 1.12-1.61 1.67-2.41 0.55-0.8 1.08-1.63 1.6-2.48 0.32-0.53 0.56-1.06 0.71-1.61 0.16-0.55 0.29-1.11 0.42-1.69 -0.13-0.02-0.27-0.04-0.41-0.06 -0.14-0.02-0.27-0.02-0.4-0.01 -0.11 0.01-0.22 0.05-0.34 0.1C33.2 7.5 32.38 8.11 31.7 8.9c-0.68 0.79-1.26 1.65-1.74 2.6 -0.48 0.94-0.87 1.91-1.18 2.9 -0.31 0.99-0.57 1.91-0.81 2.77 -0.2 0.8-0.46 1.57-0.79 2.31 -0.32 0.75-0.61 1.51-0.85 2.29 1.13-0.18 2.26-0.35 3.39-0.53 1.13-0.18 2.27-0.33 3.43-0.45 0.65-0.08 1.33-0.17 2.03-0.26 0.7-0.1 1.37-0.08 2 0.05 -0.26 0.48-0.54 0.95-0.85 1.4 -0.31 0.45-0.59 0.92-0.85 1.4 -0.91 0.07-1.81 0.16-2.72 0.25 -0.91 0.09-1.81 0.19-2.71 0.31 -1.83 0.23-3.63 0.48-5.41 0.75 -1.01 1.18-2.18 2.22-3.52 3.12 -1.34 0.9-2.83 1.53-4.46 1.91 0.01-0.43 0.11-0.91 0.29-1.43 0.18-0.52 0.36-0.98 0.55-1.38 0.25-0.56 0.54-1.01 0.87-1.35 0.33-0.34 0.7-0.64 1.11-0.89 0.41-0.25 0.85-0.48 1.32-0.69 0.47-0.21 0.97-0.45 1.49-0.72 0.24-0.12 0.39-0.25 0.45-0.37 0.06-0.12 0.13-0.29 0.21-0.51 0.32-0.7 0.62-1.39 0.91-2.07 0.29-0.68 0.55-1.39 0.78-2.11 0.42-1.29 0.82-2.6 1.21-3.92 0.39-1.32 0.92-2.59 1.57-3.82 0.35-0.64 0.76-1.28 1.23-1.92 0.48-0.63 1-1.22 1.59-1.78 0.58-0.55 1.22-1.05 1.91-1.49 0.69-0.44 1.43-0.8 2.2-1.06 0.14-0.06 0.28-0.1 0.42-0.14C34.91 4.04 35.06 4.01 35.23 3.99z"/><path class="st4" d="M46.67 12.76c-0.14 0.39-0.3 0.79-0.48 1.19 -0.18 0.4-0.34 0.79-0.51 1.19 -0.96 0.17-1.87 0.41-2.73 0.72 -0.86 0.3-1.65 0.75-2.39 1.35 -0.56 0.46-1.05 0.98-1.47 1.54 -0.42 0.56-0.65 1.19-0.69 1.89 0.17-0.02 0.34-0.04 0.52-0.05 0.18-0.01 0.36-0.03 0.55-0.05 0.67-0.08 1.15-0.26 1.42-0.54 0.27-0.28 0.47-0.6 0.58-0.96s0.21-0.76 0.29-1.18c0.08-0.42 0.25-0.82 0.52-1.19 0.44-0.09 0.87-0.17 1.31-0.25 0.44-0.07 0.88-0.16 1.31-0.27 -0.05 0.29-0.13 0.58-0.23 0.87 -0.1 0.3-0.2 0.59-0.29 0.88 -0.09 0.29-0.16 0.59-0.21 0.9 -0.05 0.31-0.05 0.61-0.02 0.91l0.03 0.25c0.43 0 0.85-0.02 1.27-0.06 0.42-0.04 0.84-0.09 1.26-0.14 -0.08 0.39-0.19 0.76-0.32 1.13 -0.14 0.36-0.28 0.74-0.42 1.11l-1.13 0.14c-0.36 0.04-0.76 0.07-1.22 0.08 -0.46 0.01-0.86-0.04-1.22-0.15 -0.11-0.04-0.2-0.08-0.27-0.11 -0.07-0.03-0.17-0.04-0.32-0.02 -0.21 0.03-0.41 0.09-0.6 0.2 -0.19 0.11-0.38 0.19-0.56 0.25 -0.29 0.11-0.59 0.2-0.91 0.27s-0.64 0.12-0.96 0.16c-0.21 0.03-0.44 0.05-0.69 0.07 -0.25 0.02-0.49 0.03-0.7 0.02 -0.26-0.02-0.48-0.11-0.67-0.25 -0.19-0.15-0.34-0.33-0.47-0.54 -0.12-0.21-0.21-0.43-0.27-0.66 -0.06-0.23-0.1-0.43-0.12-0.62 -0.05-0.41 0.01-0.85 0.19-1.34 0.17-0.48 0.41-0.96 0.7-1.44 0.29-0.48 0.62-0.93 0.97-1.35 0.35-0.42 0.68-0.78 0.99-1.08 0.48-0.45 1.03-0.85 1.68-1.18 0.64-0.33 1.32-0.61 2.02-0.83s1.43-0.4 2.16-0.53C45.3 12.96 46 12.85 46.67 12.76z"/><path class="st4" d="M47.67 11.54l2.02-0.25c-0.02 0.32-0.09 0.62-0.19 0.9 -0.1 0.28-0.19 0.57-0.26 0.88 0.97-0.12 1.94-0.25 2.91-0.39 0.97-0.14 1.94-0.3 2.9-0.47 -0.07 0.33-0.13 0.65-0.2 0.96 -0.07 0.31-0.18 0.62-0.33 0.92 -0.33 0.23-0.68 0.44-1.03 0.62 -0.35 0.18-0.63 0.43-0.85 0.74 -0.35 0.48-0.68 0.98-1.01 1.52 -0.33 0.54-0.47 1.11-0.41 1.7 -0.04 0.19 0.1 0.31 0.41 0.34 0.31 0.04 0.68 0.04 1.11 0.02 0.42-0.02 0.84-0.07 1.26-0.13 0.42-0.06 0.69-0.1 0.82-0.12 -0.08 0.39-0.2 0.76-0.37 1.13s-0.33 0.74-0.5 1.12c-0.38 0.01-0.77 0.05-1.15 0.13S52 21.3 51.6 21.35c-1.09 0.13-1.88 0.04-2.37-0.27 -0.49-0.32-0.79-0.97-0.91-1.95 -0.03-0.26 0.04-0.6 0.21-1.01s0.39-0.84 0.64-1.26c0.26-0.43 0.52-0.84 0.79-1.24 0.27-0.4 0.49-0.71 0.65-0.94 -0.17 0.02-0.34 0.04-0.51 0.05 -0.17 0.01-0.34 0.03-0.51 0.05 -0.34 0.04-0.59 0.1-0.76 0.18 -0.17 0.08-0.3 0.18-0.39 0.32 -0.09 0.13-0.16 0.29-0.21 0.46 -0.05 0.18-0.13 0.38-0.23 0.62 -0.36 0.03-0.72 0.06-1.07 0.1 -0.36 0.04-0.71 0.09-1.07 0.13 0.04-0.17 0.14-0.52 0.3-1.04 0.16-0.52 0.33-1.06 0.52-1.63 0.19-0.57 0.37-1.09 0.56-1.56C47.43 11.88 47.58 11.61 47.67 11.54z"/><path class="st4" d="M56.11 10.5l2.02-0.25c-0.02 0.32-0.09 0.62-0.19 0.9 -0.11 0.28-0.19 0.57-0.26 0.88 0.97-0.12 1.94-0.25 2.91-0.39 0.97-0.14 1.94-0.3 2.9-0.47 -0.07 0.33-0.13 0.65-0.2 0.96 -0.07 0.31-0.18 0.61-0.33 0.91 -0.33 0.23-0.68 0.44-1.03 0.62s-0.63 0.43-0.85 0.74c-0.35 0.48-0.68 0.98-1.01 1.52 -0.33 0.54-0.46 1.11-0.41 1.7 -0.04 0.19 0.1 0.31 0.41 0.34 0.31 0.04 0.68 0.04 1.11 0.02 0.42-0.02 0.84-0.07 1.26-0.13 0.42-0.06 0.69-0.1 0.82-0.12 -0.08 0.39-0.21 0.76-0.37 1.13 -0.17 0.37-0.33 0.74-0.5 1.12 -0.38 0.01-0.77 0.05-1.15 0.13 -0.39 0.08-0.78 0.14-1.18 0.19 -1.09 0.13-1.88 0.04-2.37-0.27 -0.49-0.32-0.79-0.96-0.91-1.95 -0.03-0.26 0.04-0.6 0.21-1.01s0.39-0.84 0.64-1.26c0.26-0.43 0.52-0.84 0.79-1.24 0.27-0.4 0.49-0.71 0.65-0.94 -0.17 0.02-0.34 0.04-0.51 0.05 -0.17 0.01-0.34 0.03-0.51 0.05 -0.34 0.04-0.59 0.1-0.76 0.18 -0.17 0.08-0.3 0.18-0.39 0.32 -0.09 0.13-0.16 0.29-0.21 0.46 -0.05 0.18-0.13 0.38-0.23 0.62 -0.36 0.03-0.72 0.06-1.07 0.1 -0.36 0.04-0.71 0.09-1.07 0.13 0.04-0.17 0.14-0.52 0.3-1.04 0.16-0.52 0.33-1.06 0.52-1.63 0.19-0.57 0.37-1.09 0.56-1.56C55.87 10.84 56.02 10.57 56.11 10.5z"/><path class="st4" d="M65.03 11.77c0.5-0.29 1-0.56 1.51-0.82 0.51-0.26 1.06-0.45 1.64-0.58 -0.37 1.17-0.76 2.34-1.18 3.49 -0.42 1.15-0.73 2.33-0.92 3.54 0.53-0.18 1-0.47 1.41-0.88 0.41-0.41 0.8-0.78 1.19-1.13 0.33-0.28 0.57-0.65 0.73-1.1 0.16-0.45 0.29-0.9 0.41-1.35 0.12-0.45 0.25-0.86 0.39-1.25 0.14-0.38 0.39-0.66 0.73-0.84 0.52-0.27 1.06-0.49 1.63-0.67 0.56-0.17 1.12-0.35 1.68-0.53 -0.15 0.51-0.34 0.99-0.57 1.44 -0.23 0.45-0.47 0.9-0.71 1.33 -0.25 0.43-0.48 0.86-0.71 1.27 -0.23 0.41-0.41 0.83-0.55 1.24 -0.14 0.43-0.24 0.88-0.31 1.35s-0.16 0.93-0.28 1.37c-0.1 0.54-0.23 1.07-0.38 1.6 -0.15 0.53-0.27 1.06-0.38 1.6 -0.17 0.85-0.4 1.63-0.68 2.35s-0.64 1.47-1.08 2.24c-0.35 0.61-0.8 1.13-1.34 1.56 -0.54 0.43-1.13 0.83-1.77 1.19 -0.46 0.26-0.93 0.47-1.41 0.61 -0.48 0.14-1 0.25-1.54 0.32 0.06-0.18 0.15-0.39 0.26-0.63 0.11-0.24 0.22-0.49 0.34-0.75 0.12-0.26 0.24-0.51 0.37-0.74 0.13-0.23 0.25-0.41 0.37-0.54 0.17-0.17 0.35-0.33 0.55-0.46 0.2-0.14 0.4-0.27 0.62-0.39 0.22-0.12 0.43-0.25 0.62-0.4 0.19-0.15 0.38-0.31 0.54-0.5 0.39-0.48 0.7-0.99 0.95-1.51 0.24-0.53 0.44-1.07 0.6-1.61s0.29-1.1 0.4-1.67c0.11-0.57 0.23-1.13 0.35-1.69 -0.22 0.12-0.46 0.27-0.71 0.44 -0.26 0.17-0.52 0.34-0.8 0.51 -0.28 0.17-0.55 0.31-0.82 0.44 -0.27 0.13-0.53 0.21-0.79 0.24 -0.13 0.02-0.28 0-0.45-0.04 -0.18-0.04-0.35-0.1-0.53-0.17 -0.18-0.07-0.34-0.16-0.48-0.27 -0.14-0.1-0.24-0.21-0.29-0.32 -0.05-0.09-0.1-0.22-0.13-0.41 -0.03-0.18-0.06-0.32-0.07-0.42 -0.05-0.37-0.03-0.86 0.06-1.46 0.09-0.6 0.21-1.22 0.36-1.85 0.16-0.63 0.34-1.23 0.56-1.81C64.6 12.54 64.82 12.09 65.03 11.77z"/><path class="st4" d="M52.96 36.01v-3.5h-0.5v0.88c0 0-0.27-0.56-1.31-0.57 -1.04-0.01-2.46 0.55-2.47 1.77 -0.01 1.21 0.66 1.29 0.66 1.29s-3.25 1.39-3.17 4.55 3.27 4.38 5.54 4.36c2.27-0.02 5.61-1.2 5.61-4.51s-2.59-3.2-2.59-3.2 4.28-0.71 4.25-2.45 0-1.42 0-1.42 -0.39-0.96-0.98 0c0 0 0.29 1-0.66 1.44 -0.95 0.43-6.4 2.98-6.4 2.98s-1.17 0.76-1.16 2.63c0.01 1.87 1.33 2.25 2.8 2.13s0.76-1.71 0.76-1.71 -0.54-0.28-0.68 0.55c-0.14 0.83-1.7-0.33-1.67-1.38s0.98-2.62 2.63-2.54c1.66 0.08 2.18 1.67 2.15 3.66 -0.03 1.99-2 3.06-3.77 3.02 -1.78-0.05-4.15-1.85-4.18-4.09 -0.03-2.24 0.97-2.78 2.75-3.81v-0.86c0 0-1.32-1.63 0.48-1.62 1.8 0.01 1.25 2.34 1.25 2.34L52.96 36.01z"/><polygon class="st5" points="24 31 25 29 66 23 65 24 "/><polyline class="st5" points="73 23 74 22 80 21 80 21.52 "/><path class="st6" d="M75.71 10c0 0 1.09-1 2.09-2s0-3-1.43-3c-2.65 0-1.46 2.82 0 2.95L75.71 10z"/><path class="st7" d="M75.21 10c0 0 1.09-1 2.09-2s0-3-1.43-3c-2.65 0-1.46 2.82 0 2.95L75.21 10z"/></svg>